<?xml version="1.0" encoding="UTF-8"?>
<svg version="1.1" xmlns="http://www.w3.org/2000/svg" width="120" height="120">
<path d="M0 0 C13.36110413 11.57962358 20.72681876 25.33036112 22.5234375 43.01171875 C23.12238501 59.16333673 17.73173838 74.05374745 7.015625 86.109375 C-4.36441582 98.32115378 -19.34891242 104.62131843 -35.921875 105.234375 C-53.21199895 104.90814625 -67.75877459 98.20667319 -79.796875 85.859375 C-91.40515035 73.35284025 -95.45259214 58.72821849 -95.04296875 42.078125 C-94.2508246 24.48543098 -85.2649333 11.52219804 -72.765625 -0.015625 C-51.58024605 -17.25118754 -21.23529085 -16.25270864 0 0 Z " fill="#FBF7EC" transform="translate(96.796875,14.140625)"/>
<path d="M0 0 C0.66 0 1.32 0 2 0 C2.66 1.65 3.32 3.3 4 5 C3.67 5.33 3.34 5.66 3 6 C3.68964844 6.18175781 4.37929688 6.36351562 5.08984375 6.55078125 C10.42893347 7.97893282 15.68938511 9.51472193 20.91796875 11.3046875 C23.9186641 12.30679589 26.95123479 13.15672452 30 14 C30.33 12.68 30.66 11.36 31 10 C32.32 10.33 33.64 10.66 35 11 C35.495 12.98 35.495 12.98 36 15 C36 14.34 36 13.68 36 13 C39.37097383 11.50178941 41.20442119 11 45 11 C45.99 15.29 46.98 19.58 48 24 C48.66 24 49.32 24 50 24 C49.625 26.4375 49.625 26.4375 49 29 C48.34 29.33 47.68 29.66 47 30 C46.505 28.02 46.505 28.02 46 26 C45.34 26.33 44.68 26.66 44 27 C44.495 27.928125 44.495 27.928125 45 28.875 C46 31 46 31 46 33 C46.66 33 47.32 33 48 33 C48.495 32.01 48.495 32.01 49 31 C49.66 31 50.32 31 51 31 C51 32.65 51 34.3 51 36 C51.66 36 52.32 36 53 36 C53 36.66 53 37.32 53 38 C53.66 38.66 54.32 39.32 55 40 C53.7260411 42.03833424 52.38938077 44.03852126 51 46 C50.34 46 49.68 46 49 46 C47.875 40.375 47.875 40.375 49 37 C48.34 37 47.68 37 47 37 C47 39.97 47 42.94 47 46 C46.34 46 45.68 46 45 46 C45.2784375 47.1446875 45.2784375 47.1446875 45.5625 48.3125 C46 51 46 51 45 54 C46.95216435 52.04783565 47.84826645 50.46800047 49 48 C50.98 48.495 50.98 48.495 53 49 C52.01 49.99 52.01 49.99 51 51 C51.66 51.33 52.32 51.66 53 52 C53 52.66 53 53.32 53 54 C49.3558226 56.4294516 47.28758728 56.16179575 43 56 C43.33 56.66 43.66 57.32 44 58 C47.465 57.505 47.465 57.505 51 57 C51 57.66 51 58.32 51 59 C50.34 59.474375 49.68 59.94875 49 60.4375 C48.34 60.953125 47.68 61.46875 47 62 C47 62.99 47 63.98 47 65 C43.02272727 69.88636364 43.02272727 69.88636364 39.1875 70.3125 C38.465625 70.209375 37.74375 70.10625 37 70 C37.33 70.66 37.66 71.32 38 72 C38.66277955 76.73413967 38.54140755 80.06156024 36.125 84.25 C27.40620067 93.19235829 14.00913385 94.99370272 2.1875 95.1875 C-9.62395024 95.03687577 -23.04625027 93.06073049 -31.77734375 84.1953125 C-34.02849326 80.5902688 -34.55383235 77.15374264 -34 73 C-33 70.625 -33 70.625 -32 69 C-33.0725 69.0825 -34.145 69.165 -35.25 69.25 C-39 69 -39 69 -41.4375 67.125 C-43 65 -43 65 -43 63 C-40.25 62.75 -40.25 62.75 -37 63 C-34.625 65 -34.625 65 -33 67 C-33 66.01 -33 65.02 -33 64 C-34.485 63.505 -34.485 63.505 -36 63 C-36.33 62.34 -36.66 61.68 -37 61 C-38.2375 61.0825 -39.475 61.165 -40.75 61.25 C-44.10506698 61.2737948 -44.75447904 61.19641677 -47.5 59 C-47.995 58.34 -48.49 57.68 -49 57 C-48.01 56.505 -48.01 56.505 -47 56 C-48.32 54.68 -49.64 53.36 -51 52 C-49.515 51.505 -49.515 51.505 -48 51 C-48.66 50.01 -49.32 49.02 -50 48 C-45.25 48.875 -45.25 48.875 -43 50 C-42.71125 49.195625 -42.4225 48.39125 -42.125 47.5625 C-41 45 -41 45 -39 44 C-38.67 46.97 -38.34 49.94 -38 53 C-37.34 53 -36.68 53 -36 53 C-34.25372522 55.61941217 -33.61277612 57.03824877 -33 60 C-32.34 60 -31.68 60 -31 60 C-31 62.31 -31 64.62 -31 67 C-25.98886765 65.5682479 -24.05530451 63.01554307 -21 59 C-17.65331507 59.58585294 -15.99495167 60.66304874 -13.5625 63 C-10.78273831 65.50418187 -8.85273662 66.76650081 -5 67 C-5 66.34 -5 65.68 -5 65 C-5.99 64.67 -6.98 64.34 -8 64 C-9.3515625 62.0390625 -9.3515625 62.0390625 -10.625 59.625 C-11.05039062 58.83351562 -11.47578125 58.04203125 -11.9140625 57.2265625 C-13.84140989 53.27480707 -14.25388162 49.85004957 -14.5625 45.5 C-14.64628906 44.3553125 -14.73007812 43.210625 -14.81640625 42.03125 C-15.37751318 32.7670164 -11.70439488 24.28164691 -6 17 C-3.3046875 15.2109375 -3.3046875 15.2109375 -1 14 C-1.18175781 14.52207031 -1.36351562 15.04414062 -1.55078125 15.58203125 C-2.0913158 17.1648273 -2.61718349 18.7526662 -3.1328125 20.34375 C-3.68029758 22.02073133 -4.25503331 23.68927923 -4.8671875 25.34375 C-9.18750262 38.34584123 -8.07066923 53.10954744 -4 66 C-0.37 66 3.26 66 7 66 C7.33 64.35 7.66 62.7 8 61 C8.350625 59.741875 8.70125 58.48375 9.0625 57.1875 C11.74061228 44.88044967 9.9656392 33.79560564 6 22 C5.31107014 19.67239297 4.65442643 17.33765838 4 15 C6 13 6 13 9.625 12.875 C11.295625 12.936875 11.295625 12.936875 13 13 C13 12.34 13 11.68 13 11 C11.96875 11.165 10.9375 11.33 9.875 11.5 C6.0053523 12.00414424 2.27349798 11.97158441 -1.625 11.875 C-7.9901689 11.8067774 -13.60955826 12.85092831 -19.77734375 14.33203125 C-23.9731118 15.20169954 -27.73354221 15.22067885 -32 15 C-32.33 13.68 -32.66 12.36 -33 11 C-31.68 10.67 -30.36 10.34 -29 10 C-28.67 11.32 -28.34 12.64 -28 14 C-27.39526855 13.79318604 -26.79053711 13.58637207 -26.16748047 13.37329102 C-23.40493359 12.43154973 -20.64001377 11.49697225 -17.875 10.5625 C-16.92367187 10.23701172 -15.97234375 9.91152344 -14.9921875 9.57617188 C-10.34325819 8.01038666 -5.89542321 6.58514318 -1 6 C-1.495 4.515 -1.495 4.515 -2 3 C-1.34 2.01 -0.68 1.02 0 0 Z " fill="#F3EDDD" transform="translate(59,19)"/>
<path d="M0 0 C0.97646484 0.00322266 1.95292969 0.00644531 2.95898438 0.00976562 C3.96638672 0.01814453 4.97378906 0.02652344 6.01171875 0.03515625 C7.03845703 0.03966797 8.06519531 0.04417969 9.12304688 0.04882812 C11.64849757 0.06057441 14.1738278 0.0770006 16.69921875 0.09765625 C16.69921875 0.75765625 16.69921875 1.41765625 16.69921875 2.09765625 C14.38921875 2.42765625 12.07921875 2.75765625 9.69921875 3.09765625 C8.33962679 7.17643214 9.55271875 8.99658167 11.07421875 12.97265625 C13.68712824 19.84796559 14.89535557 25.49858824 14.88671875 32.84765625 C14.88591309 33.55704346 14.88510742 34.26643066 14.88427734 34.99731445 C14.79786994 42.40717266 13.45925987 48.19755345 10.69921875 55.09765625 C7.06921875 55.09765625 3.43921875 55.09765625 -0.30078125 55.09765625 C-6.22705133 41.9567965 -6.29891409 26.3665991 -1.37109375 12.82421875 C-1.01789062 11.92445312 -0.6646875 11.0246875 -0.30078125 10.09765625 C0.37425938 8.10046708 1.04319966 6.10117401 1.69921875 4.09765625 C-4.61865406 9.5129758 -8.16036493 17.11974087 -10.30078125 25.09765625 C-10.30078125 35.10058916 -10.15438806 44.83958221 -3.05078125 52.53515625 C-2.47328125 53.05078125 -1.89578125 53.56640625 -1.30078125 54.09765625 C-1.30078125 54.75765625 -1.30078125 55.41765625 -1.30078125 56.09765625 C-4.41934748 56.40680108 -5.8412621 56.44079811 -8.3984375 54.53125 C-9.04683594 53.87253906 -9.69523437 53.21382812 -10.36328125 52.53515625 C-12.24172248 50.51859601 -12.24172248 50.51859601 -14.30078125 49.09765625 C-16.44794096 49.09793034 -16.44794096 49.09793034 -18.30078125 50.09765625 C-18.94015625 50.92265625 -19.57953125 51.74765625 -20.23828125 52.59765625 C-22.30078125 55.09765625 -22.30078125 55.09765625 -25.05078125 55.91015625 C-25.79328125 55.97203125 -26.53578125 56.03390625 -27.30078125 56.09765625 C-27.30078125 53.78765625 -27.30078125 51.47765625 -27.30078125 49.09765625 C-27.96078125 49.09765625 -28.62078125 49.09765625 -29.30078125 49.09765625 C-31.04705603 46.47824408 -31.68800513 45.05940748 -32.30078125 42.09765625 C-32.96078125 42.09765625 -33.62078125 42.09765625 -34.30078125 42.09765625 C-34.96078125 39.45765625 -35.62078125 36.81765625 -36.30078125 34.09765625 C-36.96078125 34.75765625 -37.62078125 35.41765625 -38.30078125 36.09765625 C-40.67578125 36.53515625 -40.67578125 36.53515625 -43.30078125 36.09765625 C-45.67578125 33.97265625 -45.67578125 33.97265625 -47.30078125 31.09765625 C-47.05078125 27.78515625 -47.05078125 27.78515625 -46.30078125 25.09765625 C-44.98078125 25.42765625 -43.66078125 25.75765625 -42.30078125 26.09765625 C-43.07421875 25.23140625 -43.07421875 25.23140625 -43.86328125 24.34765625 C-45.30078125 22.09765625 -45.30078125 22.09765625 -45.05078125 20.16015625 C-44.67953125 19.13921875 -44.67953125 19.13921875 -44.30078125 18.09765625 C-43.96017314 16.43246106 -43.62519729 14.76608159 -43.30078125 13.09765625 C-42.64078125 13.09765625 -41.98078125 13.09765625 -41.30078125 13.09765625 C-40.97078125 11.11765625 -40.64078125 9.13765625 -40.30078125 7.09765625 C-38.42578125 7.72265625 -38.42578125 7.72265625 -36.30078125 9.09765625 C-34.65566652 12.79916438 -33.86384748 16.05601889 -34.30078125 20.09765625 C-34.96078125 21.08765625 -35.62078125 22.07765625 -36.30078125 23.09765625 C-35.64078125 24.08765625 -34.98078125 25.07765625 -34.30078125 26.09765625 C-29.64395817 22.12957339 -28.0794002 18.62273691 -26.48828125 12.78515625 C-26.27236328 12.04458984 -26.05644531 11.30402344 -25.83398438 10.54101562 C-25.30841197 8.73071068 -24.80255082 6.91470266 -24.30078125 5.09765625 C-25.29078125 4.76765625 -26.28078125 4.43765625 -27.30078125 4.09765625 C-26.13160156 3.89269531 -24.96242188 3.68773437 -23.7578125 3.4765625 C-22.20963003 3.2044577 -20.66145325 2.93232058 -19.11328125 2.66015625 C-17.95989258 2.4580957 -17.95989258 2.4580957 -16.78320312 2.25195312 C-16.03232422 2.11982422 -15.28144531 1.98769531 -14.5078125 1.8515625 C-13.82178955 1.73111572 -13.1357666 1.61066895 -12.42895508 1.48657227 C-10.90300173 1.20770985 -9.38334014 0.89353481 -7.86914062 0.55664062 C-5.18729205 0.07737491 -2.72247901 -0.01592093 0 0 Z " fill="#F9F5E7" transform="translate(55.30078125,29.90234375)"/>
<path d="M0 0 C1.98 0 3.96 0 6 0 C6.33773437 1.25296875 6.67546875 2.5059375 7.0234375 3.796875 C7.47373798 5.44797678 7.92427101 7.09901515 8.375 8.75 C8.59671875 9.575 8.8184375 10.4 9.046875 11.25 C9.26601563 12.04921875 9.48515625 12.8484375 9.7109375 13.671875 C9.90993652 14.4050293 10.10893555 15.13818359 10.31396484 15.89355469 C11.02801583 18.08602156 11.8296338 20.0121186 13 22 C13.6909375 22.28746094 14.381875 22.57492188 15.09375 22.87109375 C15.7228125 23.24363281 16.351875 23.61617187 17 24 C17.46875 26.72265625 17.46875 26.72265625 17.5 30.0625 C17.84665668 37.35035216 19.23219494 43.00154451 24.25 48.4375 C24.8275 48.953125 25.405 49.46875 26 50 C26 50.66 26 51.32 26 52 C22.88143377 52.30914483 21.45951915 52.34314186 18.90234375 50.43359375 C18.25394531 49.77488281 17.60554688 49.11617187 16.9375 48.4375 C15.05905877 46.42093976 15.05905877 46.42093976 13 45 C10.85284029 45.00027409 10.85284029 45.00027409 9 46 C8.360625 46.825 7.72125 47.65 7.0625 48.5 C5 51 5 51 2.25 51.8125 C1.5075 51.874375 0.765 51.93625 0 52 C0 49.69 0 47.38 0 45 C-0.66 45 -1.32 45 -2 45 C-3.74627478 42.38058783 -4.38722388 40.96175123 -5 38 C-5.66 38 -6.32 38 -7 38 C-7.66 35.36 -8.32 32.72 -9 30 C-9.66 30.66 -10.32 31.32 -11 32 C-13.375 32.4375 -13.375 32.4375 -16 32 C-18.375 29.875 -18.375 29.875 -20 27 C-19.75 23.6875 -19.75 23.6875 -19 21 C-17.68 21.33 -16.36 21.66 -15 22 C-15.7734375 21.13375 -15.7734375 21.13375 -16.5625 20.25 C-18 18 -18 18 -17.75 16.0625 C-17.5025 15.381875 -17.255 14.70125 -17 14 C-16.65939189 12.33480481 -16.32441604 10.66842534 -16 9 C-15.34 9 -14.68 9 -14 9 C-13.67 7.02 -13.34 5.04 -13 3 C-11.125 3.625 -11.125 3.625 -9 5 C-7.35488527 8.70150813 -6.56306623 11.95836264 -7 16 C-7.66 16.99 -8.32 17.98 -9 19 C-8.34 19.99 -7.68 20.98 -7 22 C-2.34317692 18.03191714 -0.77861895 14.52508066 0.8125 8.6875 C1.02841797 7.94693359 1.24433594 7.20636719 1.46679688 6.44335938 C1.99236928 4.63305443 2.49823043 2.81704641 3 1 C2.01 0.67 1.02 0.34 0 0 Z " fill="#F9F5E7" transform="translate(28,34)"/>
<path d="M0 0 C1.85776765 3.13498292 2.20140476 5.37471432 2 9 C2.66 9 3.32 9 4 9 C5.74627478 11.61941217 6.38722388 13.03824877 7 16 C7.66 16 8.32 16 9 16 C9 18.31 9 20.62 9 23 C12.72614153 21.88145414 12.72614153 21.88145414 15 19 C18.72947254 19.22602864 20.59454734 20.35512306 23.25 22.8125 C29.09432298 28.05093205 35.40064309 30.80658064 43.32421875 30.44921875 C51.32973846 29.10522639 58.26413395 25.39640706 64.28125 20.0390625 C66 19 66 19 68.21875 19.3359375 C68.8065625 19.55507812 69.394375 19.77421875 70 20 C71.40309836 23.18885991 70.90389952 24.25335581 69.625 27.625 C67.05158042 32.9697945 66.09553641 33.53756909 60.4375 35.625 C59.23996094 36.07101563 58.04242188 36.51703125 56.80859375 36.9765625 C55.88175781 37.31429687 54.95492187 37.65203125 54 38 C54.350625 38.61875 54.70125 39.2375 55.0625 39.875 C55.371875 40.57625 55.68125 41.2775 56 42 C55.505 42.99 55.505 42.99 55 44 C55.33 44.99 55.66 45.98 56 47 C55.34 47 54.68 47 54 47 C53.67 46.34 53.34 45.68 53 45 C52.67 45.99 52.34 46.98 52 48 C51.01 48 50.02 48 49 48 C49 44.7 49 41.4 49 38 C48.34 38 47.68 38 47 38 C47 40.97 47 43.94 47 47 C46.34 47 45.68 47 45 47 C43.61767557 45.37373596 42.28062485 43.7074998 41 42 C40.67 43.65 40.34 45.3 40 47 C39.67 47 39.34 47 39 47 C38.67 43.7 38.34 40.4 38 37 C39.38574219 36.79503906 40.77148438 36.59007812 42.19921875 36.37890625 C44.02865555 36.10683616 45.8580821 35.83469713 47.6875 35.5625 C48.59951172 35.42779297 49.51152344 35.29308594 50.45117188 35.15429688 C51.33740234 35.02216797 52.22363281 34.89003906 53.13671875 34.75390625 C53.94842529 34.63345947 54.76013184 34.5130127 55.59643555 34.38891602 C58.07886456 33.98723908 60.53729879 33.50787223 63 33 C63 32.34 63 31.68 63 31 C58.55760058 29.55922181 55.87073121 30.26303245 51.6875 31.9375 C42.75692075 35.38713155 36.02339721 34.29220727 26.96875 31.3515625 C23.29382954 29.67850661 21.32311697 27.77367067 19.05078125 24.48828125 C18.05663624 22.83134857 18.05663624 22.83134857 16 22 C16.804375 22.886875 17.60875 23.77375 18.4375 24.6875 C20.33224459 26.91290639 20.96069333 27.71830216 21.375 30.6875 C21.58125 31.450625 21.7875 32.21375 22 33 C26.28189387 35.35084369 30.13018635 36.40612029 35 37 C35 37.33 35 37.66 35 38 C33.35 38 31.7 38 30 38 C30.020625 39.27875 30.04125 40.5575 30.0625 41.875 C30.125 45.75 30.125 45.75 29 48 C25.60326305 49.30114417 24.05968765 49.0207847 20.58984375 47.8125 C19.36211715 47.22950412 18.14471568 46.62436135 16.9375 46 C16.31278809 45.68039307 15.68807617 45.36078613 15.04443359 45.03149414 C10.0587653 42.32799795 7.75496055 40.36237947 6 35 C5.52883136 30.9950666 5.88373139 28.4389365 8 25 C6.9275 25.0825 5.855 25.165 4.75 25.25 C1 25 1 25 -1.4375 23.125 C-3 21 -3 21 -3 19 C-0.25 18.75 -0.25 18.75 3 19 C5.375 21 5.375 21 7 23 C7 22.01 7 21.02 7 20 C6.01 19.67 5.02 19.34 4 19 C3.67 18.34 3.34 17.68 3 17 C1.7625 17.0825 0.525 17.165 -0.75 17.25 C-4.10506698 17.2737948 -4.75447904 17.19641677 -7.5 15 C-7.995 14.34 -8.49 13.68 -9 13 C-8.34 12.67 -7.68 12.34 -7 12 C-8.32 10.68 -9.64 9.36 -11 8 C-10.01 7.67 -9.02 7.34 -8 7 C-8.66 6.01 -9.32 5.02 -10 4 C-5.25 4.875 -5.25 4.875 -3 6 C-2.690625 5.195625 -2.38125 4.39125 -2.0625 3.5625 C-1 1 -1 1 0 0 Z " fill="#DBCEB0" transform="translate(19,63)"/>
<path d="M0 0 C0.33 0.66 0.66 1.32 1 2 C0.29296875 4.1015625 0.29296875 4.1015625 -0.8125 6.625 C-4.1968227 14.37106712 -5.36395669 21.37863941 -5.3125 29.75 C-5.31056641 31.05855957 -5.31056641 31.05855957 -5.30859375 32.39355469 C-5.20484841 39.39895883 -4.11868344 45.29083578 -2 52 C1.63 52 5.26 52 9 52 C9.33 50.35 9.66 48.7 10 47 C10.350625 45.741875 10.70125 44.48375 11.0625 43.1875 C13.74061228 30.88044967 11.9656392 19.79560564 8 8 C7.31107014 5.67239297 6.65442643 3.33765838 6 1 C11.38090285 3.11392612 13.77464632 7.2635921 16.125 12.3125 C20.0706081 21.81003097 21.57342435 30.91348072 17.953125 40.8828125 C16.74918148 43.37244878 15.51212391 45.68494236 14 48 C13.45472656 48.90105469 12.90945312 49.80210938 12.34765625 50.73046875 C9.09796505 53.87201714 6.04817535 53.77832723 1.75 53.8125 C0.63238281 53.85020508 0.63238281 53.85020508 -0.5078125 53.88867188 C-2.33797793 53.94733102 -4.16904453 53.9765808 -6 54 C-4.515 53.505 -4.515 53.505 -3 53 C-3 52.34 -3 51.68 -3 51 C-3.99 50.67 -4.98 50.34 -6 50 C-7.3515625 48.0390625 -7.3515625 48.0390625 -8.625 45.625 C-9.05039062 44.83351562 -9.47578125 44.04203125 -9.9140625 43.2265625 C-11.84140989 39.27480707 -12.25388162 35.85004957 -12.5625 31.5 C-12.64628906 30.3553125 -12.73007812 29.210625 -12.81640625 28.03125 C-13.38726682 18.60597766 -9.55665459 10.52661771 -4 3 C-1.80859375 1.2109375 -1.80859375 1.2109375 0 0 Z " fill="#AC8C31" transform="translate(57,33)"/>
<path d="M0 0 C3.72947254 0.22602864 5.59454734 1.35512306 8.25 3.8125 C14.09432298 9.05093205 20.40064309 11.80658064 28.32421875 11.44921875 C36.32973846 10.10522639 43.26413395 6.39640706 49.28125 1.0390625 C51 0 51 0 53.21875 0.3359375 C54.10046875 0.66464844 54.10046875 0.66464844 55 1 C56.40309836 4.18885991 55.90389952 5.25335581 54.625 8.625 C52.05158042 13.9697945 51.09553641 14.53756909 45.4375 16.625 C44.23996094 17.07101563 43.04242188 17.51703125 41.80859375 17.9765625 C40.41833984 18.48316406 40.41833984 18.48316406 39 19 C39.350625 19.61875 39.70125 20.2375 40.0625 20.875 C40.371875 21.57625 40.68125 22.2775 41 23 C40.67 23.66 40.34 24.32 40 25 C40.495 26.485 40.495 26.485 41 28 C40.34 28 39.68 28 39 28 C38.505 27.01 38.505 27.01 38 26 C37.505 27.485 37.505 27.485 37 29 C36.01 29 35.02 29 34 29 C34 25.7 34 22.4 34 19 C33.34 19 32.68 19 32 19 C32 21.97 32 24.94 32 28 C31.34 28 30.68 28 30 28 C28.61767557 26.37373596 27.28062485 24.7074998 26 23 C25.67 24.65 25.34 26.3 25 28 C24.67 28 24.34 28 24 28 C23.505 23.05 23.505 23.05 23 18 C24.38574219 17.79503906 25.77148438 17.59007813 27.19921875 17.37890625 C29.02865555 17.10683616 30.8580821 16.83469713 32.6875 16.5625 C33.59951172 16.42779297 34.51152344 16.29308594 35.45117188 16.15429688 C36.78051758 15.95610352 36.78051758 15.95610352 38.13671875 15.75390625 C38.94842529 15.63345947 39.76013184 15.5130127 40.59643555 15.38891602 C43.07886456 14.98723908 45.53729879 14.50787223 48 14 C48 13.34 48 12.68 48 12 C43.55760058 10.55922181 40.87073121 11.26303245 36.6875 12.9375 C27.75692075 16.38713155 21.02339721 15.29220727 11.96875 12.3515625 C8.29382954 10.67850661 6.32311697 8.77367067 4.05078125 5.48828125 C3.05663624 3.83134857 3.05663624 3.83134857 1 3 C1.845625 3.886875 2.69125 4.77375 3.5625 5.6875 C6.02603251 8.6008348 6.02603251 8.6008348 5.8125 11.875 C5.544375 12.57625 5.27625 13.2775 5 14 C3.68 13.67 2.36 13.34 1 13 C1 12.34 1 11.68 1 11 C0.34 11 -0.32 11 -1 11 C-2.08597621 6.65609517 -1.99695254 3.99390508 0 0 Z " fill="#2CA953" transform="translate(34,82)"/>
<path d="M0 0 C-1 3 -1 3 -3.36328125 4.32421875 C-6.64987122 6.41302927 -7.54539627 8.31257382 -9.1875 11.8125 C-9.67605469 12.82957031 -10.16460937 13.84664062 -10.66796875 14.89453125 C-12.05631822 17.99342731 -12.05631822 17.99342731 -13.05078125 21.296875 C-14 24 -14 24 -16 25.4375 C-18 26 -18 26 -20 25 C-20.49609375 23.375 -20.49609375 23.375 -21 21 C-22.04666109 17.43546744 -23.10026751 13.87312267 -24.16015625 10.3125 C-25 7 -25 7 -25 3 C-8.29157175 -1.77676538 -8.29157175 -1.77676538 0 0 Z " fill="#FAF6E9" transform="translate(59,31)"/>
<path d="M0 0 C3.36179774 1.44077046 5.59156268 3.24750021 8 6 C8 6.66 8 7.32 8 8 C8.845625 8.12375 9.69125 8.2475 10.5625 8.375 C14 9 14 9 17.3125 10.0625 C25.30736922 12.09509387 30.97109643 11.01238724 38.51953125 7.77734375 C41.9921875 6.6890625 43.83928719 7.4196436 47 9 C47 9.66 47 10.32 47 11 C39.11962476 13.723632 31.26082413 14.98822759 23 16 C23.66 16.99 24.32 17.98 25 19 C25.07905064 21.33199388 25.08798769 23.66832622 25 26 C23.02 26 21.04 26 19 26 C19 26.66 19 27.32 19 28 C16.36 28 13.72 28 11 28 C10.67 27.34 10.34 26.68 10 26 C10.99 26 11.98 26 13 26 C13.33 22.7 13.66 19.4 14 16 C12.55625 15.29875 11.1125 14.5975 9.625 13.875 C5.19228232 11.43700528 5.19228232 11.43700528 3.625 7.875 C3.315625 6.451875 3.315625 6.451875 3 5 C1.4587688 3.29078411 1.4587688 3.29078411 0 2 C0 1.34 0 0.68 0 0 Z " fill="#BBB29F" transform="translate(35,85)"/>
<path d="M0 0 C0.66 0 1.32 0 2 0 C2.66 1.65 3.32 3.3 4 5 C3.67 5.33 3.34 5.66 3 6 C3.68964844 6.18175781 4.37929688 6.36351562 5.08984375 6.55078125 C10.42893347 7.97893282 15.68938511 9.51472193 20.91796875 11.3046875 C23.9186641 12.30679589 26.95123479 13.15672452 30 14 C30.33 12.68 30.66 11.36 31 10 C32.32 10.33 33.64 10.66 35 11 C34.67 12.32 34.34 13.64 34 15 C32.3759367 15.08336447 30.75051404 15.14022051 29.125 15.1875 C28.22007813 15.22230469 27.31515625 15.25710937 26.3828125 15.29296875 C23.3440937 15.02980026 21.15293186 14.46106771 18.2890625 13.51171875 C12.87094766 11.79985416 7.90232205 11.54095804 2.25 11.625 C1.29134033 11.63080078 0.33268066 11.63660156 -0.6550293 11.64257812 C-7.42369133 11.76551019 -13.49616483 12.64996463 -20.05859375 14.33203125 C-24.14195316 15.25932801 -27.83265644 15.21555225 -32 15 C-32.33 13.68 -32.66 12.36 -33 11 C-31.68 10.67 -30.36 10.34 -29 10 C-28.67 11.32 -28.34 12.64 -28 14 C-27.39526855 13.79318604 -26.79053711 13.58637207 -26.16748047 13.37329102 C-23.40493359 12.43154973 -20.64001377 11.49697225 -17.875 10.5625 C-16.92367187 10.23701172 -15.97234375 9.91152344 -14.9921875 9.57617188 C-10.34325819 8.01038666 -5.89542321 6.58514318 -1 6 C-1.33 5.01 -1.66 4.02 -2 3 C-1.34 2.01 -0.68 1.02 0 0 Z " fill="#AF8F37" transform="translate(59,19)"/>
<path d="M0 0 C4.29 0 8.58 0 13 0 C13 0.99 13 1.98 13 3 C8.71 3.66 4.42 4.32 0 5 C2.70879335 6.35439668 5.00933268 6.06501451 8 6 C8.33 6.99 8.66 7.98 9 9 C7.25021843 9.16894443 5.50016388 9.33506309 3.75 9.5 C2.77546875 9.5928125 1.8009375 9.685625 0.796875 9.78125 C-1.46302153 9.95800168 -3.73320193 10 -6 10 C-6.433125 10.433125 -6.86625 10.86625 -7.3125 11.3125 C-9.83836561 13.83836561 -12.68046858 14.77701474 -16 16 C-17.32 16 -18.64 16 -20 16 C-20 15.34 -20 14.68 -20 14 C-19.01 14 -18.02 14 -17 14 C-17 13.34 -17 12.68 -17 12 C-16.34 12 -15.68 12 -15 12 C-15 11.34 -15 10.68 -15 10 C-16.98 10.66 -18.96 11.32 -21 12 C-21.33 11.34 -21.66 10.68 -22 10 C-17.27636674 5.84892835 -12.16856529 3.27625489 -6 2 C-5.2575 1.814375 -4.515 1.62875 -3.75 1.4375 C-2.88375 1.2209375 -2.88375 1.2209375 -2 1 C-2 1.66 -2 2.32 -2 3 C-1.34 3 -0.68 3 0 3 C0 2.01 0 1.02 0 0 Z " fill="#DAD2BF" transform="translate(51,7)"/>
<path d="M0 0 C1.98 0 3.96 0 6 0 C6.81313676 2.9164905 7.6255335 5.83318369 8.4375 8.75 C8.66759766 9.575 8.89769531 10.4 9.13476562 11.25 C9.35712891 12.04921875 9.57949219 12.8484375 9.80859375 13.671875 C10.01282959 14.4050293 10.21706543 15.13818359 10.42749023 15.89355469 C10.9790563 17.92294147 11.49755982 19.95795396 12 22 C8.85408067 24.80045623 6.932936 25.35261589 2.75 25.1875 C1.85796875 25.16042969 0.9659375 25.13335937 0.046875 25.10546875 C-0.62859375 25.07066406 -1.3040625 25.03585938 -2 25 C-2.66 23.68 -3.32 22.36 -4 21 C-3.34 21 -2.68 21 -2 21 C-2.66 20.67 -3.32 20.34 -4 20 C-4 19.34 -4 18.68 -4 18 C-3.34 17.67 -2.68 17.34 -2 17 C-1.03830784 14.31600461 -0.17729112 11.66855494 0.625 8.9375 C0.96917969 7.79958008 0.96917969 7.79958008 1.3203125 6.63867188 C1.88710193 4.76118188 2.44444077 2.88084367 3 1 C2.01 0.67 1.02 0.34 0 0 Z " fill="#F2E6C3" transform="translate(28,34)"/>
<path d="M0 0 C1.875 0.625 1.875 0.625 4 2 C5.64511473 5.70150813 6.43693377 8.95836264 6 13 C5.01 14.485 5.01 14.485 4 16 C4.165 16.78375 4.33 17.5675 4.5 18.375 C5.33465063 22.7569158 3.39172382 25.41241427 1 29 C-1.98828314 28.67694236 -3.61321245 28.34810879 -5.875 26.3125 C-7.38380949 23.21105827 -6.81980367 21.27921467 -6 18 C-4.68 18.33 -3.36 18.66 -2 19 C-2.7734375 18.13375 -2.7734375 18.13375 -3.5625 17.25 C-5 15 -5 15 -4.75 13.0625 C-4.5025 12.381875 -4.255 11.70125 -4 11 C-3.65939189 9.33480481 -3.32441604 7.66842534 -3 6 C-2.34 6 -1.68 6 -1 6 C-0.67 4.02 -0.34 2.04 0 0 Z " fill="#F1DFB1" transform="translate(15,37)"/>
<path d="M0 0 C5.68898176 0.73248692 10.83506276 2.5823698 16 5 C16 5.66 16 6.32 16 7 C17.98 7.66 19.96 8.32 22 9 C22 9.66 22 10.32 22 11 C22.66 11 23.32 11 24 11 C24 11.99 24 12.98 24 14 C21.31363803 13.02992484 19.15421596 12.11792985 16.875 10.375 C14.9843199 8.70431817 14.9843199 8.70431817 12 9 C13.32 9.66 14.64 10.32 16 11 C16 11.66 16 12.32 16 13 C16.61875 13.144375 17.2375 13.28875 17.875 13.4375 C20 14 20 14 22 15 C21.67 16.32 21.34 17.64 21 19 C20.20335938 18.51789062 19.40671875 18.03578125 18.5859375 17.5390625 C17.52632812 16.90742188 16.46671875 16.27578125 15.375 15.625 C14.33085938 14.99851562 13.28671875 14.37203125 12.2109375 13.7265625 C8.15233453 11.54419934 4.63825612 10 0 10 C0 9.01 0 8.02 0 7 C-0.66 7 -1.32 7 -2 7 C-2 7.66 -2 8.32 -2 9 C-2.66 9 -3.32 9 -4 9 C-4 8.01 -4 7.02 -4 6 C-2.35 5.67 -0.7 5.34 1 5 C0.34 3.68 -0.32 2.36 -1 1 C-0.67 0.67 -0.34 0.34 0 0 Z " fill="#E9E3D4" transform="translate(66,7)"/>
<path d="M0 0 C1.85776765 3.13498292 2.20140476 5.37471432 2 9 C2.66 9 3.32 9 4 9 C5.74627478 11.61941217 6.38722388 13.03824877 7 16 C7.66 16 8.32 16 9 16 C9 18.31 9 20.62 9 23 C8.34 23 7.68 23 7 23 C7 22.01 7 21.02 7 20 C6.01 19.67 5.02 19.34 4 19 C3.67 18.34 3.34 17.68 3 17 C1.7625 17.0825 0.525 17.165 -0.75 17.25 C-4.10506698 17.2737948 -4.75447904 17.19641677 -7.5 15 C-7.995 14.34 -8.49 13.68 -9 13 C-8.34 12.67 -7.68 12.34 -7 12 C-8.32 10.68 -9.64 9.36 -11 8 C-10.01 7.67 -9.02 7.34 -8 7 C-8.66 6.01 -9.32 5.02 -10 4 C-5.25 4.875 -5.25 4.875 -3 6 C-2.690625 5.195625 -2.38125 4.39125 -2.0625 3.5625 C-1 1 -1 1 0 0 Z " fill="#E2BA56" transform="translate(19,63)"/>
<path d="M0 0 C1.32 0.33 2.64 0.66 4 1 C3.01 1.495 3.01 1.495 2 2 C2.15146484 2.55461914 2.30292969 3.10923828 2.45898438 3.68066406 C3.14452404 6.20239534 3.82233148 8.72614266 4.5 11.25 C4.73847656 12.12269531 4.97695312 12.99539062 5.22265625 13.89453125 C5.44824219 14.73886719 5.67382812 15.58320312 5.90625 16.453125 C6.11572266 17.22817383 6.32519531 18.00322266 6.54101562 18.80175781 C7 21 7 21 7 25 C4.63386544 26.18306728 3.13219264 26.13354608 0.5 26.125 C-0.2940625 26.12757812 -1.088125 26.13015625 -1.90625 26.1328125 C-4 26 -4 26 -6 25 C-5.75 22.625 -5.75 22.625 -5 20 C-3.68 19.34 -2.36 18.68 -1 18 C-0.505 9.09 -0.505 9.09 0 0 Z " fill="#ECDBB0" transform="translate(88,34)"/>
<path d="M0 0 C3.77858108 0.11113474 5.71926646 1.44606848 8.4375 3.875 C14.60480288 9.3453582 19.43828741 10.61521775 27.67578125 10.41796875 C34.29516164 9.58568473 39.45341843 6.50655765 44.375 2.125 C47 0 47 0 49.375 0.1875 C49.91125 0.455625 50.4475 0.72375 51 1 C42.37369385 8.23496644 33.41620855 14.84584493 21.72265625 14.484375 C13.99784324 13.11008976 7.0751073 8.893673 2 3 C1.01 2.34 0.02 1.68 -1 1 C-0.67 0.67 -0.34 0.34 0 0 Z " fill="#BFD646" transform="translate(36,80)"/>
<path d="M0 0 C0.66 0.33 1.32 0.66 2 1 C-1.55639236 3.30119506 -4.94718288 4.77472971 -9 6 C-8.649375 6.61875 -8.29875 7.2375 -7.9375 7.875 C-7.4734375 8.926875 -7.4734375 8.926875 -7 10 C-7.33 10.66 -7.66 11.32 -8 12 C-7.67 12.99 -7.34 13.98 -7 15 C-7.66 15 -8.32 15 -9 15 C-9.33 14.34 -9.66 13.68 -10 13 C-10.33 13.99 -10.66 14.98 -11 16 C-11.99 16 -12.98 16 -14 16 C-14 12.7 -14 9.4 -14 6 C-14.66 6 -15.32 6 -16 6 C-16 8.97 -16 11.94 -16 15 C-16.66 15 -17.32 15 -18 15 C-19.38232443 13.37373596 -20.71937515 11.7074998 -22 10 C-22.33 11.65 -22.66 13.3 -23 15 C-23.33 15 -23.66 15 -24 15 C-24.33 11.7 -24.66 8.4 -25 5 C-23.61425781 4.80664062 -22.22851562 4.61328125 -20.80078125 4.4140625 C-18.97130717 4.15136879 -17.14188263 3.88832982 -15.3125 3.625 C-13.94448242 3.43550781 -13.94448242 3.43550781 -12.54882812 3.2421875 C-8.05269779 2.58820491 -4.20554956 1.77512348 0 0 Z " fill="#797368" transform="translate(82,95)"/>
<path d="M0 0 C0 0.66 0 1.32 0 2 C-7.16135994 4.56360724 -13.53982659 5.46968316 -21.125 5.375 C-22.06214844 5.38660156 -22.99929687 5.39820312 -23.96484375 5.41015625 C-29.97809595 5.38492582 -34.54569578 4.58229184 -40 2 C-40.33 1.34 -40.66 0.68 -41 0 C-37.01102934 -1.12509429 -34.48296537 -0.98746419 -30.6875 0.4375 C-22.4340922 3.41368712 -16.44638176 2.19130647 -8.48046875 -1.22265625 C-5.0078125 -2.3109375 -3.16071281 -1.5803564 0 0 Z " fill="#F4F8F6" transform="translate(82,94)"/>
<path d="M0 0 C3.62848403 0.4535605 5.72549124 2.15233097 8.5 4.4375 C14.12423552 9.05052879 17.74521562 10.51936513 25.05078125 10.3828125 C31.4054395 9.55796944 36.65890594 6.3446631 41.375 2.125 C44 0 44 0 46.375 0.1875 C46.91125 0.455625 47.4475 0.72375 48 1 C38.99009809 8.55669192 31.37563459 13.61650523 19.3671875 13.453125 C12.01211948 12.46334787 7.06645097 8.09753349 2 3 C1.01 2.34 0.02 1.68 -1 1 C-0.67 0.67 -0.34 0.34 0 0 Z " fill="#32ABDC" transform="translate(38,78)"/>
<path d="M0 0 C0.66 0 1.32 0 2 0 C4.125 6.625 4.125 6.625 3 10 C4.95216435 8.04783565 5.84826645 6.46800047 7 4 C8.32 4.33 9.64 4.66 11 5 C10.34 5.66 9.68 6.32 9 7 C9.66 7.33 10.32 7.66 11 8 C11 8.66 11 9.32 11 10 C7.3558226 12.4294516 5.28758728 12.16179575 1 12 C1.33 12.66 1.66 13.32 2 14 C5.465 13.505 5.465 13.505 9 13 C9 13.66 9 14.32 9 15 C5.5980513 17.09350689 2.94727588 17.17942163 -1 17 C-2.3899408 14.2201184 -2.18488204 12.0813674 -2 9 C-1.34964186 7.65863633 -0.6837045 6.32467746 0 5 C0.16750414 2.33290931 0.16750414 2.33290931 0 0 Z " fill="#E2B954" transform="translate(101,63)"/>
<path d="M0 0 C0.33 0.66 0.66 1.32 1 2 C0.06421005 4.35981813 -0.93347808 6.69631264 -2 9 C-5.63 9 -9.26 9 -13 9 C-13.99 6.36 -14.98 3.72 -16 1 C-8.08 0.505 -8.08 0.505 0 0 Z " fill="#DBCEB1" transform="translate(68,76)"/>
<path d="M0 0 C0.58265625 0.21527344 1.1653125 0.43054688 1.765625 0.65234375 C3.16872336 3.84120366 2.66952452 4.90569956 1.390625 8.27734375 C0.52563381 10.07386391 -0.34266939 11.86893254 -1.234375 13.65234375 C-4.171875 12.90234375 -4.171875 12.90234375 -7.234375 11.65234375 C-8.109375 9.52734375 -8.109375 9.52734375 -8.234375 7.65234375 C-7.574375 7.65234375 -6.914375 7.65234375 -6.234375 7.65234375 C-6.234375 6.99234375 -6.234375 6.33234375 -6.234375 5.65234375 C-7.224375 5.32234375 -8.214375 4.99234375 -9.234375 4.65234375 C-8.16330383 3.78285058 -7.07691556 2.9322017 -5.984375 2.08984375 C-5.38109375 1.61417969 -4.7778125 1.13851562 -4.15625 0.6484375 C-2.234375 -0.34765625 -2.234375 -0.34765625 0 0 Z " fill="#2AAA50" transform="translate(87.234375,82.34765625)"/>
<path d="M0 0 C1.32 0.99 2.64 1.98 4 3 C4.66 2.01 5.32 1.02 6 0 C6.66 0 7.32 0 8 0 C8 1.65 8 3.3 8 5 C8.66 5 9.32 5 10 5 C10 5.66 10 6.32 10 7 C10.66 7.66 11.32 8.32 12 9 C10.7260411 11.03833424 9.38938077 13.03852126 8 15 C7.34 15 6.68 15 6 15 C4.875 9.375 4.875 9.375 6 6 C5.34 6 4.68 6 4 6 C4 8.97 4 11.94 4 15 C2 13.25 2 13.25 0 11 C0 9.68 0 8.36 0 7 C-0.185625 6.319375 -0.37125 5.63875 -0.5625 4.9375 C-1 3 -1 3 0 0 Z " fill="#E4BE5F" transform="translate(102,50)"/>
<path d="M0 0 C0.33 0.66 0.66 1.32 1 2 C2.98 2 4.96 2 7 2 C7 2.99 7 3.98 7 5 C-0.1124976 10.55121764 -5.80854246 12.33734396 -14.64453125 12.30078125 C-17 12 -17 12 -19 10 C-16.23547967 8.61773984 -13.9538637 8.90474613 -10.875 8.9375 C-9.77929688 8.94652344 -8.68359375 8.95554687 -7.5546875 8.96484375 C-6.71164063 8.97644531 -5.86859375 8.98804687 -5 9 C-4.55527344 8.09507813 -4.55527344 8.09507813 -4.1015625 7.171875 C-2.85017604 4.70460241 -1.4421515 2.35988427 0 0 Z " fill="#D4D2C4" transform="translate(72,77)"/>
<path d="M0 0 C0.66 0 1.32 0 2 0 C3.567713 7.66816143 3.567713 7.66816143 2.17578125 10.93359375 C1.0625 12.5625 1.0625 12.5625 -1 15 C-3.98828314 14.67694236 -5.61321245 14.34810879 -7.875 12.3125 C-9.38380949 9.21105827 -8.81980367 7.27921467 -8 4 C-6.02 4.66 -4.04 5.32 -2 6 C-1.855625 5.195625 -1.71125 4.39125 -1.5625 3.5625 C-1 1 -1 1 0 0 Z " fill="#E9C97A" transform="translate(17,51)"/>
<path d="M0 0 C0.66 0 1.32 0 2 0 C3.36952673 2.73905345 3.12621361 4.97087332 3 8 C2.67 8.66 2.34 9.32 2 10 C2.99 10 3.98 10 5 10 C5.33 8.68 5.66 7.36 6 6 C6.66 7.65 7.32 9.3 8 11 C-0.25 11 -8.5 11 -17 11 C-17 10.67 -17 10.34 -17 10 C-9.57142857 8.71428571 -9.57142857 8.71428571 -6 10 C-6 8.02 -6 6.04 -6 4 C-4 5.375 -4 5.375 -2 7 C-2 7.66 -2 8.32 -2 9 C-1.34 9 -0.68 9 0 9 C0 6.03 0 3.06 0 0 Z " fill="#E1D2B3" transform="translate(66,101)"/>
<path d="M0 0 C-0.33 0.99 -0.66 1.98 -1 3 C-0.01 3 0.98 3 2 3 C2 3.99 2 4.98 2 6 C-0.36613456 7.18306728 -1.86780736 7.13354608 -4.5 7.125 C-5.2940625 7.12757812 -6.088125 7.13015625 -6.90625 7.1328125 C-9 7 -9 7 -11 6 C-10.67 4.35 -10.34 2.7 -10 1 C-6.52674819 -0.1577506 -3.63932552 -0.06866652 0 0 Z " fill="#C4A97B" transform="translate(93,53)"/>
<path d="M0 0 C0.33 1.32 0.66 2.64 1 4 C1.66 4 2.32 4 3 4 C4.74627478 6.61941217 5.38722388 8.03824877 6 11 C6.66 11 7.32 11 8 11 C8 13.31 8 15.62 8 18 C7.34 18 6.68 18 6 18 C6 17.01 6 16.02 6 15 C5.01 14.67 4.02 14.34 3 14 C2.67 13.01 2.34 12.02 2 11 C1.34 11 0.68 11 0 11 C0 9.68 0 8.36 0 7 C-0.66 7 -1.32 7 -2 7 C-1.125 1.125 -1.125 1.125 0 0 Z " fill="#E0B244" transform="translate(20,68)"/>
<path d="M0 0 C0.53625 0.268125 1.0725 0.53625 1.625 0.8125 C-6.00758363 7.21402175 -13.39105739 13.16379544 -23.6875 12.9375 C-24.75613281 12.91945313 -25.82476562 12.90140625 -26.92578125 12.8828125 C-27.73402344 12.85960938 -28.54226562 12.83640625 -29.375 12.8125 C-29.375 12.4825 -29.375 12.1525 -29.375 11.8125 C-28.69695313 11.72613281 -28.01890625 11.63976562 -27.3203125 11.55078125 C-18.82756221 10.26863474 -11.46703471 7.75621043 -5 1.9375 C-2.375 -0.1875 -2.375 -0.1875 0 0 Z " fill="#E0DF3A" transform="translate(85.375,80.1875)"/>
<path d="M0 0 C0 0.66 0 1.32 0 2 C-0.66 2 -1.32 2 -2 2 C-2 2.66 -2 3.32 -2 4 C-10.79810462 8.26186773 -18.46801191 8.76702651 -28 7 C-28.33 6.34 -28.66 5.68 -29 5 C-28.20078125 5.05800781 -27.4015625 5.11601563 -26.578125 5.17578125 C-18.89394966 5.49144573 -13.47476411 4.47206931 -6.55859375 1.09375 C-4 0 -4 0 0 0 Z " fill="#26A851" transform="translate(81,88)"/>
<path d="M0 0 C0.66 0.33 1.32 0.66 2 1 C-10.14033867 7.34748671 -20.41755194 8.17168825 -34 8 C-34 7.34 -34 6.68 -34 6 C-27.4 6 -20.8 6 -14 6 C-13.67 5.01 -13.34 4.02 -13 3 C-12.01 3.33 -11.02 3.66 -10 4 C-7.51777853 3.20599738 -7.51777853 3.20599738 -4.9375 2 C-2.27734375 0.8125 -2.27734375 0.8125 0 0 Z " fill="#C3B9A5" transform="translate(88,106)"/>
<path d="M0 0 C0.66 0.99 1.32 1.98 2 3 C2.66 2.67 3.32 2.34 4 2 C4.33 2.99 4.66 3.98 5 5 C5.66 4.67 6.32 4.34 7 4 C6.39009109 7.55780196 5.4216319 10.6828589 4 14 C3.34 14 2.68 14 2 14 C2 12.68 2 11.36 2 10 C1.01 10.33 0.02 10.66 -1 11 C-2.60080151 6.99799622 -1.29279692 3.95443764 0 0 Z " fill="#F6EBCD" transform="translate(17,29)"/>
<path d="M0 0 C2.97 0.99 5.94 1.98 9 3 C9 3.66 9 4.32 9 5 C10.98 5.66 12.96 6.32 15 7 C15 7.66 15 8.32 15 9 C15.66 9 16.32 9 17 9 C17 9.99 17 10.98 17 12 C12.90730771 10.59313702 9.55135637 8.49604131 5.9375 6.17578125 C3.71283914 4.82573504 1.45926264 3.84537153 -1 3 C-0.67 2.01 -0.34 1.02 0 0 Z " fill="#C1B49A" transform="translate(73,9)"/>
<path d="M0 0 C1.875 0.5625 1.875 0.5625 4 2 C5.4375 5.375 5.4375 5.375 6 9 C4.625 11.4375 4.625 11.4375 3 13 C2.34 12.67 1.68 12.34 1 12 C1.66 11.01 2.32 10.02 3 9 C2.01 8.67 1.02 8.34 0 8 C0 9.65 0 11.3 0 13 C-1.5 11.75 -1.5 11.75 -3 10 C-3 8.68 -3 7.36 -3 6 C-2.34 6 -1.68 6 -1 6 C-0.67 4.02 -0.34 2.04 0 0 Z " fill="#E1B64D" transform="translate(15,37)"/>
<path d="M0 0 C3.375 1.6875 3.375 1.6875 4.375 3.6875 C7.1909849 4.15648963 7.1909849 4.15648963 10.4375 4.3125 C11.54222656 4.38726562 12.64695312 4.46203125 13.78515625 4.5390625 C14.63980469 4.58804688 15.49445313 4.63703125 16.375 4.6875 C16.375 5.3475 16.375 6.0075 16.375 6.6875 C8.59888759 7.21469406 1.53368511 5.87268876 -5.625 2.6875 C-5.955 1.6975 -6.285 0.7075 -6.625 -0.3125 C-3.625 -1.3125 -3.625 -1.3125 0 0 Z " fill="#3AAE66" transform="translate(48.625,90.3125)"/>
<path d="M0 0 C1.4589426 0.47730838 2.91713496 0.95691042 4.375 1.4375 C5.18710938 1.70433594 5.99921875 1.97117187 6.8359375 2.24609375 C9 3 9 3 11 4 C11 4.66 11 5.32 11 6 C11.928125 6.2165625 11.928125 6.2165625 12.875 6.4375 C15 7 15 7 17 8 C16.67 9.32 16.34 10.64 16 12 C15.19175781 11.51789062 14.38351563 11.03578125 13.55078125 10.5390625 C12.48214844 9.90742188 11.41351563 9.27578125 10.3125 8.625 C9.25675781 7.99851562 8.20101562 7.37203125 7.11328125 6.7265625 C4.442809 5.24557287 1.86067949 4.05086185 -1 3 C-0.67 2.01 -0.34 1.02 0 0 Z " fill="#C2B59C" transform="translate(71,14)"/>
<path d="M0 0 C0.33 0 0.66 0 1 0 C1.05379226 2.95857409 1.09357093 5.91617721 1.125 8.875 C1.14175781 9.71675781 1.15851563 10.55851562 1.17578125 11.42578125 C1.18222656 12.23144531 1.18867187 13.03710938 1.1953125 13.8671875 C1.20578613 14.61081543 1.21625977 15.35444336 1.22705078 16.12060547 C1 18 1 18 -1 20 C-1.99 20 -2.98 20 -4 20 C-3.21085905 13.21338787 -1.58725189 6.63850633 0 0 Z " fill="#F6EDD5" transform="translate(87,34)"/>
<path d="M0 0 C0.66 0 1.32 0 2 0 C2 2.31 2 4.62 2 7 C2.99 7 3.98 7 5 7 C4.67 4.69 4.34 2.38 4 0 C4.66 0 5.32 0 6 0 C7.23076923 6.4 7.23076923 6.4 6.0625 9.4375 C5.711875 9.953125 5.36125 10.46875 5 11 C2.36 11 -0.28 11 -3 11 C-3.33 10.34 -3.66 9.68 -4 9 C-3.01 9 -2.02 9 -1 9 C-0.67 6.03 -0.34 3.06 0 0 Z " fill="#837A6D" transform="translate(49,102)"/>
<path d="M0 0 C0.99 0 1.98 0 3 0 C6 3.33333333 6 3.33333333 6 6 C7.32 6.33 8.64 6.66 10 7 C6.68629 9.20914 5.6553979 9.22481553 1.8125 9.125 C0.91144531 9.10695313 0.01039062 9.08890625 -0.91796875 9.0703125 C-1.60503906 9.04710937 -2.29210937 9.02390625 -3 9 C-3.66 7.68 -4.32 6.36 -5 5 C-2.36 5.66 0.28 6.32 3 7 C2.505 6.21625 2.01 5.4325 1.5 4.625 C0 2 0 2 0 0 Z " fill="#CDA23A" transform="translate(29,50)"/>
<path d="M0 0 C0.99 0 1.98 0 3 0 C3.66 1.32 4.32 2.64 5 4 C5.66 4 6.32 4 7 4 C6.625 6.4375 6.625 6.4375 6 9 C5.01 9.495 5.01 9.495 4 10 C3.67 8.68 3.34 7.36 3 6 C2.01 6.495 2.01 6.495 1 7 C1.66 8.32 2.32 9.64 3 11 C1.0625 10.1875 1.0625 10.1875 -1 9 C-2.25541557 5.23375329 -1.37061958 3.62811066 0 0 Z " fill="#E1B64C" transform="translate(102,39)"/>
<path d="M0 0 C0.33 0 0.66 0 1 0 C1.99 3.96 2.98 7.92 4 12 C7.96 12 11.92 12 16 12 C16 12.33 16 12.66 16 13 C8.08 13.495 8.08 13.495 0 14 C0.99 13.67 1.98 13.34 3 13 C3 12.34 3 11.68 3 11 C2.01 10.67 1.02 10.34 0 10 C-1.6875 6.9375 -1.6875 6.9375 -3 4 C-2.34 4 -1.68 4 -1 4 C-0.67 2.68 -0.34 1.36 0 0 Z " fill="#A58D4D" transform="translate(51,73)"/>
<path d="M0 0 C0.66 0 1.32 0 2 0 C2 1.65 2 3.3 2 5 C2.66 5 3.32 5 4 5 C4 6.32 4 7.64 4 9 C4.66 9.33 5.32 9.66 6 10 C-1.38461538 10.49230769 -1.38461538 10.49230769 -4.5 8 C-4.995 7.34 -5.49 6.68 -6 6 C-2.535 5.505 -2.535 5.505 1 5 C0.67 3.35 0.34 1.7 0 0 Z " fill="#F6EACB" transform="translate(16,70)"/>
<path d="M0 0 C1.32 0.33 2.64 0.66 4 1 C3.67 2.32 3.34 3.64 3 5 C-3.7281627 5.22262303 -9.53991163 4.95021536 -16 3 C-13.41569255 1.28943459 -12.31678461 0.94779248 -9.203125 1.4609375 C-8.22859375 1.76257813 -7.2540625 2.06421875 -6.25 2.375 C-5.26515625 2.67148437 -4.2803125 2.96796875 -3.265625 3.2734375 C-2.51796875 3.51320312 -1.7703125 3.75296875 -1 4 C-0.67 2.68 -0.34 1.36 0 0 Z " fill="#BEA55D" transform="translate(90,29)"/>
<path d="M0 0 C1.95418308 2.93127462 2.64700993 4.55834679 3 8 C2.34 8.66 1.68 9.32 1 10 C0.67 9.67 0.34 9.34 0 9 C-0.66 10.65 -1.32 12.3 -2 14 C-2.66 13.67 -3.32 13.34 -4 13 C-4.40729228 10.67843403 -4.74438677 8.3431213 -5 6 C-4.01 6.33 -3.02 6.66 -2 7 C-1.855625 6.401875 -1.71125 5.80375 -1.5625 5.1875 C-1.1127561 3.43849596 -0.57107659 1.71322977 0 0 Z " fill="#F5E8C6" transform="translate(103,31)"/>
<path d="M0 0 C0.66 0 1.32 0 2 0 C1.67 1.65 1.34 3.3 1 5 C1.66 5.33 2.32 5.66 3 6 C2.44894091 9.9492568 1.61064629 13.34920174 0 17 C-0.66 17 -1.32 17 -2 17 C-2.33 13.7 -2.66 10.4 -3 7 C-2.01 7.495 -2.01 7.495 -1 8 C-0.67 5.36 -0.34 2.72 0 0 Z " fill="#F7EDD3" transform="translate(106,56)"/>
<path d="M0 0 C0.61875 0.804375 1.2375 1.60875 1.875 2.4375 C3.74164041 5.03874519 3.74164041 5.03874519 6 6 C6 6.66 6 7.32 6 8 C3.33644766 8.39169887 1.60775627 8.40564529 -0.66796875 6.88671875 C-2.1510888 5.63610683 -3.57954352 4.32135486 -5 3 C-3 1 -3 1 0 0 Z " fill="#CCC5AB" transform="translate(48,78)"/>
<path d="M0 0 C4.6891871 0.13791727 7.2659249 2.5953762 10.64453125 5.52734375 C12 7 12 7 12 9 C7.12846211 8.58243961 5.24637715 6.50267008 2 3 C1.01 2.34 0.02 1.68 -1 1 C-0.67 0.67 -0.34 0.34 0 0 Z " fill="#E0DF39" transform="translate(36,80)"/>
<path d="M0 0 C0.53625 0.268125 1.0725 0.53625 1.625 0.8125 C-2.79942592 4.52330883 -7.54903931 7.65827733 -12.375 10.8125 C-13.035 9.8225 -13.695 8.8325 -14.375 7.8125 C-13.075625 7.2246875 -13.075625 7.2246875 -11.75 6.625 C-9.06045798 5.18061632 -7.43020359 4.05916604 -5.25 2.0625 C-2.375 -0.1875 -2.375 -0.1875 0 0 Z " fill="#3DACD2" transform="translate(84.375,78.1875)"/>
<path d="M0 0 C2.36113721 3.54170582 2.78117292 5.76934307 3 10 C1.625 12.9375 1.625 12.9375 0 15 C-0.33 15 -0.66 15 -1 15 C-1.02703381 13.06257659 -1.04641125 11.12504521 -1.0625 9.1875 C-1.07410156 8.10855469 -1.08570313 7.02960937 -1.09765625 5.91796875 C-1 3 -1 3 0 0 Z " fill="#E2D5B1" transform="translate(52,50)"/>
<path d="M0 0 C-0.55728913 3.34373475 -1.35173889 6.03312999 -3 9 C-4.32 8.67 -5.64 8.34 -7 8 C-7.3125 5.6875 -7.3125 5.6875 -7 3 C-4.6167054 1.18116991 -3.04181663 0 0 0 Z " fill="#23A44F" transform="translate(89,87)"/>
<path d="M0 0 C0 0.99 0 1.98 0 3 C-1.41225926 3.67595315 -2.83002905 4.34040059 -4.25 5 C-5.43335938 5.556875 -5.43335938 5.556875 -6.640625 6.125 C-9 7 -9 7 -13 7 C-13 6.34 -13 5.68 -13 5 C-12.01 5 -11.02 5 -10 5 C-10 4.34 -10 3.68 -10 3 C-6.59538535 1.23899242 -3.90650339 0 0 0 Z " fill="#C0B399" transform="translate(44,16)"/>
<path d="M0 0 C0.33 0.99 0.66 1.98 1 3 C0.15695313 3.27714844 -0.68609375 3.55429688 -1.5546875 3.83984375 C-3.19824219 4.38318359 -3.19824219 4.38318359 -4.875 4.9375 C-5.96554688 5.29714844 -7.05609375 5.65679688 -8.1796875 6.02734375 C-10.90758682 6.89914074 -10.90758682 6.89914074 -13 8 C-13.33 7.01 -13.66 6.02 -14 5 C-10.68652912 3.2679584 -7.65977031 1.78423649 -4 1 C-2 0 -2 0 0 0 Z " fill="#C1B49A" transform="translate(49,8)"/>
<path d="M0 0 C-2.99481865 4.22797927 -2.99481865 4.22797927 -5 6 C-8.3125 6.375 -8.3125 6.375 -11 6 C-11 4 -11 4 -9.4375 1.875 C-6.19346756 -0.62040957 -3.9901641 -0.3069357 0 0 Z " fill="#DEAD38" transform="translate(107,82)"/>
<path d="M0 0 C0.66 0 1.32 0 2 0 C3.91384609 3.50871784 4.04276246 4.81367786 3.125 8.8125 C2.75375 9.864375 2.3825 10.91625 2 12 C1.34 12 0.68 12 0 12 C-0.39063507 10.56666979 -0.76198474 9.12807321 -1.125 7.6875 C-1.33382812 6.88699219 -1.54265625 6.08648437 -1.7578125 5.26171875 C-2 3 -2 3 0 0 Z " fill="#BAA053" transform="translate(59,19)"/>
<path d="M0 0 C0.66 0.33 1.32 0.66 2 1 C1.01 3.31 0.02 5.62 -1 8 C-2.32 7.67 -3.64 7.34 -5 7 C-5.33 5.35 -5.66 3.7 -6 2 C-3 0 -3 0 0 0 Z " fill="#F8F1DC" transform="translate(102,30)"/>
<path d="M0 0 C4.29 0 8.58 0 13 0 C13 0.99 13 1.98 13 3 C8.71 3 4.42 3 0 3 C0 2.01 0 1.02 0 0 Z " fill="#C0B399" transform="translate(51,7)"/>
<path d="M0 0 C3.70293685 -0.33663062 5.39534381 -0.47736015 8.375 1.875 C10 4 10 4 10 6 C6.29706315 6.33663062 4.60465619 6.47736015 1.625 4.125 C0 2 0 2 0 0 Z " fill="#DDAB32" transform="translate(16,82)"/>
<path d="M0 0 C2.0625 0.4375 2.0625 0.4375 4 1 C3.34 1.66 2.68 2.32 2 3 C2.66 3.33 3.32 3.66 4 4 C4 4.66 4 5.32 4 6 C1 8 1 8 -3 8 C-1.125 1.125 -1.125 1.125 0 0 Z " fill="#DEAF3B" transform="translate(108,67)"/>
<path d="M0 0 C0.66 0 1.32 0 2 0 C2.33 1.65 2.66 3.3 3 5 C5.97 5.495 5.97 5.495 9 6 C9 6.33 9 6.66 9 7 C8.05125 7.103125 7.1025 7.20625 6.125 7.3125 C2.70892499 7.68539295 2.70892499 7.68539295 1 11 C0.34 11 -0.32 11 -1 11 C-0.9278125 10.28972656 -0.855625 9.57945313 -0.78125 8.84765625 C-0.6884375 7.92855469 -0.595625 7.00945312 -0.5 6.0625 C-0.4071875 5.14597656 -0.314375 4.22945313 -0.21875 3.28515625 C-0.05708522 1.64507518 -0.05708522 1.64507518 0 0 Z " fill="#F3E3BA" transform="translate(97,75)"/>
<path d="M0 0 C5.75 0.75 5.75 0.75 8 3 C8 3.99 8 4.98 8 6 C5.6875 6.25 5.6875 6.25 3 6 C1.02389614 3.95575462 0 2.8823175 0 0 Z " fill="#C7D5CF" transform="translate(32,50)"/>
<path d="M0 0 C0.99 1.32 1.98 2.64 3 4 C2.34 4 1.68 4 1 4 C1.33 5.32 1.66 6.64 2 8 C1.34 8 0.68 8 0 8 C0.2784375 9.0828125 0.2784375 9.0828125 0.5625 10.1875 C1.01995307 13.12826973 0.73516357 15.14103058 0 18 C-0.66 17.34 -1.32 16.68 -2 16 C-1.81864449 13.23286597 -1.5356614 10.6080224 -1.125 7.875 C-1.02058594 7.12089844 -0.91617188 6.36679687 -0.80859375 5.58984375 C-0.54895402 3.72515844 -0.27574971 1.86237113 0 0 Z " fill="#F2E1B5" transform="translate(101,55)"/>
<path d="M0 0 C1.9375 0.6875 1.9375 0.6875 4 2 C5.13531135 5.3186024 5.10336858 7.68989426 4 11 C1.37613513 7.93882432 1 7.26826873 1 3 C0.67 2.01 0.34 1.02 0 0 Z " fill="#DDAB33" transform="translate(101,54)"/>
<path d="M0 0 C1.5625 1.625 1.5625 1.625 3 4 C2.6875 7.25 2.6875 7.25 2 10 C0 8.1875 0 8.1875 -2 6 C-2 5.01 -2 4.02 -2 3 C-2.33 2.34 -2.66 1.68 -3 1 C-2.01 0.67 -1.02 0.34 0 0 Z " fill="#F7ECD0" transform="translate(105,44)"/>
<path d="M0 0 C0 1.65 0 3.3 0 5 C-2.64 4.67 -5.28 4.34 -8 4 C-5.52914451 0.29371676 -4.37054922 0 0 0 Z " fill="#A9882B" transform="translate(59,26)"/>
<path d="M0 0 C3.36295835 1.44126786 5.62927102 3.20592655 8 6 C8 6.99 8 7.98 8 9 C7.01 9.33 6.02 9.66 5 10 C4.731875 9.236875 4.46375 8.47375 4.1875 7.6875 C3.04199033 5.09503074 2.00288478 3.91184456 0 2 C0 1.34 0 0.68 0 0 Z " fill="#BBD244" transform="translate(35,85)"/>
<path d="M0 0 C1.9375 0.6875 1.9375 0.6875 4 2 C4.75 4.625 4.75 4.625 5 7 C3.68 7.33 2.36 7.66 1 8 C0.67 5.36 0.34 2.72 0 0 Z " fill="#1BA54D" transform="translate(35,88)"/>
<path d="M0 0 C1.125 1.75 1.125 1.75 2 4 C1.125 5.9375 1.125 5.9375 0 8 C-0.16750414 10.66709069 -0.16750414 10.66709069 0 13 C-1.5 11.75 -1.5 11.75 -3 10 C-3 8.68 -3 7.36 -3 6 C-2.34 6 -1.68 6 -1 6 C-0.67 4.02 -0.34 2.04 0 0 Z " fill="#E8C87A" transform="translate(15,37)"/>
<path d="M0 0 C1.8871875 0.0309375 1.8871875 0.0309375 3.8125 0.0625 C3.8125 0.7225 3.8125 1.3825 3.8125 2.0625 C2.719375 2.18625 1.62625 2.31 0.5 2.4375 C-3.26131802 2.81714801 -3.26131802 2.81714801 -6.1875 5.0625 C-6.5175 3.7425 -6.8475 2.4225 -7.1875 1.0625 C-4.43671116 0.14557039 -2.82801087 -0.04636083 0 0 Z " fill="#E9DFC2" transform="translate(68.1875,29.9375)"/>
<path d="M0 0 C2.475 0.495 2.475 0.495 5 1 C5 3.31 5 5.62 5 8 C3.35 7.67 1.7 7.34 0 7 C0 4.69 0 2.38 0 0 Z " fill="#CEC0A4" transform="translate(55,103)"/>
<path d="M0 0 C4.0084034 2.0042017 5.41409657 3.49055963 8 7 C7.67 7.66 7.34 8.32 7 9 C5.68 7.68 4.36 6.36 3 5 C2.67 6.65 2.34 8.3 2 10 C1.67 10 1.34 10 1 10 C0.67 6.7 0.34 3.4 0 0 Z " fill="#504942" transform="translate(57,100)"/>
<path d="M0 0 C0.66 0 1.32 0 2 0 C2.25 6.625 2.25 6.625 0 10 C-0.66 10 -1.32 10 -2 10 C-2.25 3.375 -2.25 3.375 0 0 Z " fill="#DCAA31" transform="translate(96,76)"/>
<path d="M0 0 C4.31457305 0.319598 6.90647504 3.25801197 10 6 C9.01 6.66 8.02 7.32 7 8 C6.236875 7.21625 5.47375 6.4325 4.6875 5.625 C2.09108195 2.92742283 2.09108195 2.92742283 -1 1 C-0.67 0.67 -0.34 0.34 0 0 Z " fill="#3AADD4" transform="translate(38,78)"/>
<path d="M0 0 C0.66 0.33 1.32 0.66 2 1 C1.01 1.66 0.02 2.32 -1 3 C-0.67 2.01 -0.34 1.02 0 0 Z M-3 3 C-2.34 3.33 -1.68 3.66 -1 4 C-1 4.99 -1 5.98 -1 7 C-2.093125 6.979375 -3.18625 6.95875 -4.3125 6.9375 C-7.94384191 6.81455548 -7.94384191 6.81455548 -11 8 C-11 7.01 -11 6.02 -11 5 C-9.865625 4.855625 -8.73125 4.71125 -7.5625 4.5625 C-4.19222799 4.38828522 -4.19222799 4.38828522 -3 3 Z " fill="#F9F2DF" transform="translate(113,70)"/>
<path d="M0 0 C0.5775 0.515625 1.155 1.03125 1.75 1.5625 C1.42 2.5525 1.09 3.5425 0.75 4.5625 C-1.56 3.5725 -3.87 2.5825 -6.25 1.5625 C-6.25 0.9025 -6.25 0.2425 -6.25 -0.4375 C-3.39943397 -1.55736523 -2.65876672 -1.69865651 0 0 Z " fill="#B9CFD3" transform="translate(30.25,52.4375)"/>
<path d="M0 0 C0.598125 0.20625 1.19625 0.4125 1.8125 0.625 C0.5385411 2.66333424 -0.79811923 4.66352126 -2.1875 6.625 C-2.8475 6.625 -3.5075 6.625 -4.1875 6.625 C-4.5175 4.975 -4.8475 3.325 -5.1875 1.625 C-2.1875 -0.375 -2.1875 -0.375 0 0 Z " fill="#EBCF89" transform="translate(112.1875,58.375)"/>
<path d="M0 0 C0.33 0 0.66 0 1 0 C1 3.63 1 7.26 1 11 C-0.32 11.33 -1.64 11.66 -3 12 C-2.01 8.04 -1.02 4.08 0 0 Z " fill="#FBF8ED" transform="translate(31,39)"/>
<path d="M0 0 C-3.29334787 2.16420003 -6.02867481 3.67800066 -10 4 C-10.66 3.34 -11.32 2.68 -12 2 C-10.75579353 1.4654744 -9.50429064 0.94791389 -8.25 0.4375 C-7.55390625 0.14746094 -6.8578125 -0.14257812 -6.140625 -0.44140625 C-3.69987216 -1.07831803 -2.3596345 -0.80248831 0 0 Z " fill="#B99D50" transform="translate(56,27)"/>
<path d="M0 0 C0.66 0 1.32 0 2 0 C2.8125 1.6875 2.8125 1.6875 3 4 C0.5625 6.75 0.5625 6.75 -2 9 C-1.835 8.4225 -1.67 7.845 -1.5 7.25 C-0.85537969 4.73335631 -0.85537969 4.73335631 -1 1 C-0.67 0.67 -0.34 0.34 0 0 Z " fill="#DDAC36" transform="translate(17,51)"/>
<path d="M0 0 C0.99 0 1.98 0 3 0 C6 3.33333333 6 3.33333333 6 6 C6.66 6.33 7.32 6.66 8 7 C5.6875 7.3125 5.6875 7.3125 3 7 C1.18116991 4.6167054 0 3.04181663 0 0 Z " fill="#AC9555" transform="translate(29,50)"/>
<path d="M0 0 C0.33 0 0.66 0 1 0 C2.13764351 4.26616316 3 7.56486311 3 12 C2.01 12 1.02 12 0 12 C0 8.04 0 4.08 0 0 Z " fill="#FCFAF0" transform="translate(89,40)"/>
<path d="M0 0 C1.4540625 0.0309375 1.4540625 0.0309375 2.9375 0.0625 C3.2675 1.0525 3.5975 2.0425 3.9375 3.0625 C0.9675 3.0625 -2.0025 3.0625 -5.0625 3.0625 C-3.56765464 0.07280928 -3.56765464 0.07280928 0 0 Z " fill="#C2B69D" transform="translate(56.0625,12.9375)"/>
<path d="M0 0 C0.66 0.33 1.32 0.66 2 1 C1.0409375 1.86625 1.0409375 1.86625 0.0625 2.75 C-1.98223868 4.98062401 -2.58205199 6.07436391 -3 9 C-3.99 8.67 -4.98 8.34 -6 8 C-6 5 -6 5 -4.6875 3.61328125 C-3.125 2.40885417 -1.5625 1.20442708 0 0 Z " fill="#C9D441" transform="translate(85,85)"/>
<path d="M0 0 C1.95216435 3.90432869 2.50639991 6.72213252 3 11 C2.01 11 1.02 11 0 11 C0 7.37 0 3.74 0 0 Z " fill="#FCF9EF" transform="translate(33,39)"/>
<path d="M0 0 C0.66 1.32 1.32 2.64 2 4 C2.66 4 3.32 4 4 4 C3.625 6.4375 3.625 6.4375 3 9 C2.01 9.495 2.01 9.495 1 10 C0.67 6.7 0.34 3.4 0 0 Z " fill="#E8C775" transform="translate(105,39)"/>
<path d="M0 0 C0 0.66 0 1.32 0 2 C-2.64738916 3.4606285 -3.89448334 4 -7 4 C-7 3.01 -7 2.02 -7 1 C-4.53721199 -0.231394 -2.7204945 -0.07159196 0 0 Z " fill="#DFB03F" transform="translate(110,76)"/>
<path d="M0 0 C1.98 0.99 3.96 1.98 6 3 C6 3.99 6 4.98 6 6 C3.69 5.01 1.38 4.02 -1 3 C-0.67 2.01 -0.34 1.02 0 0 Z " fill="#BCAF93" transform="translate(71,14)"/>
<path d="M0 0 C0 0.66 0 1.32 0 2 C-3.3 2.33 -6.6 2.66 -10 3 C-4.15384615 -1.38461538 -4.15384615 -1.38461538 0 0 Z " fill="#F9F6EA" transform="translate(49,12)"/>
<path d="M0 0 C2 0 2 0 3.625 1.375 C5 3 5 3 5 5 C3.35 5 1.7 5 0 5 C-0.33 4.01 -0.66 3.02 -1 2 C-0.67 1.34 -0.34 0.68 0 0 Z " fill="#D8CCAE" transform="translate(49,81)"/>
<path d="M0 0 C0.66 0.33 1.32 0.66 2 1 C1.34 3.64 0.68 6.28 0 9 C-0.99 9 -1.98 9 -3 9 C-2.01 6.03 -1.02 3.06 0 0 Z " fill="#AFA38C" transform="translate(71,102)"/>
<path d="M0 0 C1.65 0 3.3 0 5 0 C5 1.98 5 3.96 5 6 C3.31237149 4.3545622 1.6459651 2.68711423 0 1 C0 0.67 0 0.34 0 0 Z " fill="#D9CBAD" transform="translate(60,101)"/>
<path d="M0 0 C1.32 0.33 2.64 0.66 4 1 C3.67 2.32 3.34 3.64 3 5 C2.01 5 1.02 5 0 5 C0 3.35 0 1.7 0 0 Z " fill="#AD8D34" transform="translate(90,29)"/>
<path d="M0 0 C1.65 0.33 3.3 0.66 5 1 C4.67 1.99 4.34 2.98 4 4 C2.35 3.67 0.7 3.34 -1 3 C-0.67 2.01 -0.34 1.02 0 0 Z " fill="#C7BBA3" transform="translate(66,7)"/>
<path d="M0 0 C2.0625 0.4375 2.0625 0.4375 4 1 C-0.75 5 -0.75 5 -3 5 C-1.125 1.125 -1.125 1.125 0 0 Z " fill="#E1E036" transform="translate(83,80)"/>
<path d="M0 0 C1.98 0 3.96 0 6 0 C6.33 0.99 6.66 1.98 7 3 C4.625 3.1875 4.625 3.1875 2 3 C1.34 2.01 0.68 1.02 0 0 Z " fill="#DCAA30" transform="translate(12,77)"/>
<path d="M0 0 C0.99 0.33 1.98 0.66 3 1 C4.125 5.75 4.125 5.75 3 8 C2.34 7.67 1.68 7.34 1 7 C0.59270772 4.67843403 0.25561323 2.3431213 0 0 Z " fill="#F2E1B6" transform="translate(98,37)"/>
</svg>
